<svg width="30" height="22" viewBox="0 0 30 22" fill="none" xmlns="http://www.w3.org/2000/svg">
<path fill-rule="evenodd" clip-rule="evenodd" d="M29.94 10.66C27.536 4.4417 21.6621 0.250528 15 0C8.3379 0.250528 2.46397 4.4417 0.0600018 10.66C-0.0194309 10.8797 -0.0194309 11.1203 0.0600018 11.34C2.46397 17.5583 8.3379 21.7495 15 22C21.6621 21.7495 27.536 17.5583 29.94 11.34C30.0194 11.1203 30.0194 10.8797 29.94 10.66ZM9 11C9 7.68629 11.6863 5 15 5C18.3137 5 21 7.68629 21 11C21 14.3137 18.3137 17 15 17C11.6863 17 9 14.3137 9 11ZM11 11C11 13.2091 12.7909 15 15 15C16.0609 15 17.0783 14.5786 17.8284 13.8284C18.5786 13.0783 19 12.0609 19 11C19 8.79086 17.2091 7 15 7C12.7909 7 11 8.79086 11 11ZM2.07 11C4.1 16.07 9.7 20 15 20C20.3 20 25.9 16.07 27.93 11C25.9 5.93 20.3 2 15 2C9.7 2 4.1 5.93 2.07 11Z" fill="#888888"/>
</svg>
